<svg version="1.1" id="Layer_1" xmlns="http://www.w3.org/2000/svg" x="0" y="0" viewBox="0 0 143.5 58" style="enable-background:new 0 0 143.5 58" xml:space="preserve"><style>.st0{fill:#2479e0}</style><path class="st0" d="M49.41 32.3c.04-2.79.05-4.45.05-4.98-.11.04-.29.15-.54.34-.25.19-.51.29-.76.29-.2 0-.45-.05-.76-.16-1.27-.38-1.9-.78-1.9-1.2 0-.09.03-.19.08-.3.13-.27.36-.43.71-.46.53-.05.84-.11.95-.16.42-.15 1.18-.5 2.29-1.06l.03-3.27c0-.16-.05-.38-.15-.65s-.15-.47-.15-.6c0-.09.02-.17.05-.25L37.58 3.02v12.95c-3.51-3.78-8.5-6.16-14.06-6.16-10.61 0-19.2 8.59-19.2 19.19s8.59 19.19 19.19 19.19c5.56 0 10.56-2.38 14.06-6.16v12.95L49.49 37.9c-.05-.38-.09-.96-.1-1.79-.02-.82-.01-2.09.02-3.81zM31.26 21.81c.11-.21.17-.38.19-.5.04-.13.04-.45 0-.98-.04-.4.05-.67.27-.82.29-.2.81-.3 1.55-.3.82 0 1.39.15 1.71.44.05.05.08.14.08.25 0 .15-.05.4-.16.76-.13.44-.21.73-.25.9-.04.16-.02.53.05 1.09 0 .34-.11.57-.34.67-.23.1-.51.15-.86.15-.49 0-.99-.08-1.5-.25-.62-.24-.92-.54-.92-.93.02-.11.08-.27.18-.48zm-9.41-10.03h3.11v3.11h-3.11v-3.11zM6.3 27.34h3.11v3.11H6.3v-3.11zm3.07 11.45L7.81 36.1l2.69-1.56 1.56 2.69-2.69 1.56zm1.14-15.55-2.69-1.56 1.56-2.69 2.69 1.56-1.56 2.69zm5.69-9.94 1.56 2.69-2.69 1.56-1.56-2.69 2.69-1.56zm0 31.19-2.69-1.56 1.56-2.69 2.69 1.56-1.56 2.69zM24.96 46h-3.11v-3.11h3.11V46zm4.37-16.07c-.31.13-.6.24-.87.35-.07 1.31-.05 3.18.05 5.63 0 .16.06.39.19.69s.19.51.19.64c0 .33-.31.6-.93.82-.13.05-.29.08-.49.08-.6 0-1.23-.15-1.9-.44-.8-.34-1.2-.75-1.2-1.22 0-.22.09-.5.26-.84.17-.34.34-.68.5-1.01v-4.19l-3.65.68c0 .8.01 1.92.03 3.37l.03 2.2c0 .2.06.5.18.91.12.41.18.7.18.88 0 .33-.12.59-.37.79-.25.2-.58.3-.99.3-.44 0-.88-.1-1.33-.31-.45-.21-.76-.42-.91-.64-.15-.22-.23-.38-.23-.49 0-.04.07-.21.22-.52 0-.69-.01-1.83-.03-3.42-.02-1.59-.03-2.6-.03-3.03-.02-.05-.24-.41-.65-1.06-.25-.38-.34-.73-.27-1.06.04-.18.15-.33.33-.44.18-.11.36-.23.54-.35-.05-3.88-.04-6.5.05-7.86-.16-.31-.24-.54-.24-.71 0-.36.28-.67.84-.93.24-.09.57-.14 1.01-.14 1.42 0 2.28.34 2.58 1.03.05.13.08.24.08.35 0 .24-.16.58-.48 1.02-.32.44-.48.81-.48 1.1-.11 2.61-.13 4.56-.05 5.85 1.78-.29 2.96-.51 3.54-.65-.16-2-.15-4.33.05-6.99-.16-.42-.25-.75-.25-1.01 0-.49.34-.89 1.01-1.2.15-.07.35-.11.63-.11.63 0 1.25.15 1.85.44.69.33 1.04.73 1.06 1.22.02.24-.14.53-.48.87-.34.34-.5.64-.5.9-.04 2.36-.02 4.34.05 5.93.29.22.58.53.88.94s.45.74.45.99c.01.32-.14.52-.45.64zm5.47 6.94c.2.6.3 1.01.3 1.22 0 .33-.15.57-.44.73-.45.27-.94.41-1.47.41-.69 0-1.18-.22-1.47-.65-.38-.51-.57-2.07-.57-4.68 0-.62.01-1.58.04-2.9.03-1.31.04-2.27.04-2.87 0-.24-.03-.53-.08-.9-.05-.36-.08-.63-.08-.79 0-.54.22-1.01.65-1.39.18-.16.52-.25 1.01-.25s.98.07 1.47.2.8.29.94.48c.14.18.2.36.2.54 0 .22-.14.57-.42 1.05-.28.48-.42.88-.42 1.18v7.21c0 .35.1.81.3 1.41zm9.39.95c-.91.82-1.98 1.22-3.21 1.22-.78 0-1.59-.34-2.42-1.01-.65-.54-1.24-1.21-1.77-1.99-.45-.69-.65-1.12-.6-1.31.2-.4.83-.6 1.88-.6.44 0 .78.05 1.03.16.44.22.68.49.73.82.05.36.15.6.27.71.38.51.73.76 1.03.76.24 0 .46-.14.67-.42.21-.28.31-.62.31-1.02 0-.24-.05-.48-.14-.72-.09-.24-.58-.62-1.47-1.13-1.07-.6-1.83-1.13-2.29-1.61-.78-.78-1.17-1.69-1.17-2.72 0-1.23.4-2.31 1.2-3.24.8-.93 1.81-1.39 3.05-1.39 1.27 0 2.24.44 2.91 1.31.54.71.77 1.42.68 2.12.2.2.3.53.3.98 0 .49-.2.91-.6 1.25-.4.34-.81.52-1.22.52-.62 0-1.15-.36-1.61-1.09-.13-.2-.19-.46-.19-.79 0-.15.01-.35.04-.63.03-.27.04-.46.04-.57 0-.44-.17-.65-.52-.65-.53 0-.79.47-.79 1.42s.34 1.7 1.03 2.26c.27.24.86.56 1.77.98.78.36 1.33.73 1.66 1.12.49.56.73 1.33.73 2.31.03 1.16-.42 2.14-1.33 2.95zM52.79 33.17 55.7 29l-2.15-3.08-.76.37z"/><path class="st0" d="M49.58 38.31c.36.76 1.02 1.14 1.99 1.14.51 0 .98-.11 1.43-.33.44-.22.71-.5.8-.84.07-.31-.08-.71-.45-1.2s-.56-.89-.56-1.2v-2.72l-3.3 4.73c.02.2.05.35.09.42zM54.97 22.88a1.69 1.69 0 0 0-.3-.03c-.22 0-.48.11-.79.33-.4.31-.76.53-1.09.65l.03-2.34c0-.18.11-.38.33-.58.22-.21.33-.41.33-.61 0-.16-.07-.37-.22-.63-.38-.65-1.03-.98-1.96-.98-.8 0-1.43.33-1.91.98-.04.05-.06.11-.08.16l4.24 6.08.25-.12c.13-.04.25-.05.38-.05.16 0 .4.05.71.15s.54.15.68.15c.33 0 .59-.14.8-.41.21-.27.31-.56.31-.87 0-.96-.57-1.58-1.71-1.88zM62.4 24.35c-.56 0-1.11.06-1.63.19-1.02.25-1.85 1.12-2.5 2.58-.62 1.38-.93 2.93-.93 4.65 0 1.96.4 3.57 1.2 4.84.91 1.47 2.19 2.2 3.86 2.2 1.69 0 3.01-.82 3.97-2.45.85-1.43 1.28-3.17 1.28-5.2 0-2.63-.61-4.5-1.82-5.61-.9-.79-2.04-1.2-3.43-1.2zm1.41 10.21c-.44 1.32-.91 1.95-1.42 1.88-.8-.11-1.32-.73-1.58-1.88-.15-.63-.22-1.72-.22-3.27 0-1.05.19-2.06.57-3.02.44-1.07.95-1.58 1.55-1.52 1.14.09 1.71 1.33 1.71 3.73.02 1.45-.19 2.81-.61 4.08zM77.57 24.79c-.57-.29-1.17-.42-1.78-.38-.4.04-.75.2-1.05.48-.3.28-.59.56-.86.83l-1.52 2.04-.05-.9c0-.09.07-.19.22-.29.14-.1.22-.24.22-.42 0-.11-.03-.25-.08-.41-.13-.4-.67-.6-1.63-.6-1.23 0-1.97.19-2.2.57a.78.78 0 0 0-.11.35c0 .13.07.29.22.5.15.21.22.39.22.53v9.17c0 .18-.02.42-.05.71-.04.29-.05.51-.05.65 0 .36.13.67.38.93.38.36.9.54 1.55.54.94 0 1.57-.31 1.88-.93.13-.24.19-.45.19-.65s-.11-.48-.34-.84c-.23-.36-.34-.73-.34-1.09v-3.73l3.62-4.41c.2-.22.66-.41 1.39-.57.62-.13.96-.36 1.03-.71a.9.9 0 0 0 .03-.25c-.04-.45-.32-.83-.89-1.12zM91.1 24.88c-.53-.35-1.05-.53-1.58-.53-.24 0-.44.05-.63.14-.29.16-.48.44-.57.84-.15.67-.23 1.03-.25 1.09l-2.78 6.31-1.8-5.09c-.04-.13-.1-.69-.19-1.69-.07-.63-.34-1.07-.79-1.31-.38-.2-.9-.3-1.55-.3-1.05 0-1.67.29-1.85.87-.04.13-.05.25-.05.35 0 .22.08.47.25.76.24.4.38.67.44.82l3.92 10.12-.65 3.08c-.04.13-.13.29-.27.49-.15.2-.22.38-.22.54 0 .15.04.31.11.49.31.69.98 1.03 2.01 1.03.58 0 1.02-.17 1.31-.52.15-.18.21-.44.19-.79-.02-.45-.01-.74.03-.87.18-1.38.63-2.94 1.36-4.68 1.6-3.63 2.78-6.26 3.54-7.89.02-.04.24-.36.65-.98.24-.38.33-.73.27-1.06-.07-.45-.37-.86-.9-1.22zM101.58 18.59c-.16-.07-.37-.11-.63-.11-.27 0-.69.05-1.27.14-.57.09-.97.14-1.18.14-.18 0-.44-.04-.79-.14-.34-.09-.6-.14-.76-.14-.22 0-.42.06-.6.19-.76.45-1.5 1.65-2.2 3.59-.76 2.09-1.09 4.05-.98 5.88.38 6.75 2.44 10.31 6.18 10.69.42.05.84.11 1.28.16.42.04.84-.02 1.28-.16 1.09-.29 2.11-1.6 3.08-3.92.96-2.32 1.38-4.58 1.25-6.78-.3-5.33-1.85-8.51-4.66-9.54zm-.08 15.13c-.69 1.67-1.32 2.5-1.88 2.5-.6 0-1.22-.93-1.88-2.78-.65-1.85-.98-3.62-.98-5.31 0-1.29.25-2.78.76-4.49.49-1.54.88-2.38 1.18-2.52.3-.14.58-.2.86-.2 1 0 1.75.87 2.26 2.61.31 1.03.55 2.57.73 4.6.02.22.03.44.03.65.01 1.57-.36 3.21-1.08 4.94zM117.06 25.28c-.51-.22-1.06-.33-1.66-.33-.33 0-.58.04-.76.11-.33.15-.49.42-.49.82 0 .15.03.37.08.68.05.31.08.54.08.71 0 2.54-.06 4.39-.19 5.55-.24 2.3-.73 3.46-1.5 3.46-.45 0-.81-.53-1.06-1.61-.2-.93-.3-2.1-.3-3.51 0-1.38.09-2.53.27-3.46-.04-.29.04-.67.25-1.13.2-.46.3-.8.3-1.02 0-.11-.02-.22-.05-.33-.07-.24-.31-.44-.71-.61-.4-.17-.83-.26-1.28-.26-.56 0-.99.14-1.28.41-.34.33-.52.73-.52 1.22 0 .29.06.62.19.98-.24 1.58-.35 3.07-.35 4.46 0 5.21 1.59 7.81 4.76 7.81 2.18 0 3.6-1.39 4.27-4.16.31-1.32.46-3.68.46-7.08.04-.18.15-.45.33-.82.15-.29.2-.55.16-.79-.06-.44-.4-.81-1-1.1z"/><path class="st0" d="M127.54 22.88a1.69 1.69 0 0 0-.3-.03c-.22 0-.48.11-.79.33-.4.31-.76.53-1.09.65l.03-2.34c0-.18.11-.38.33-.58.22-.21.33-.41.33-.61 0-.16-.07-.37-.22-.63-.38-.65-1.03-.98-1.96-.98-.8 0-1.43.33-1.91.98a.7.7 0 0 0-.14.41c0 .13.05.33.15.6s.15.49.15.65l-.03 3.27c-1.11.56-1.87.92-2.29 1.06-.11.05-.43.11-.95.16-.34.04-.58.19-.71.46-.05.11-.08.21-.08.3 0 .42.63.82 1.9 1.2.31.11.56.16.76.16.25 0 .51-.1.76-.29.25-.19.44-.3.54-.34 0 .53-.02 2.19-.05 4.98-.04 1.72-.05 2.99-.03 3.81.02 1.23.08 1.97.19 2.2.36.76 1.02 1.14 1.99 1.14.51 0 .98-.11 1.43-.33.44-.22.71-.5.8-.84.07-.31-.08-.71-.45-1.2s-.56-.89-.56-1.2v-9.61l1.01-.49c.13-.04.25-.05.38-.05.16 0 .4.05.71.15s.54.15.68.15c.33 0 .59-.14.8-.41.21-.27.31-.56.31-.87.03-.94-.55-1.56-1.69-1.86z"/></svg>